{"title":"Punch Drunk Love 2002 WS DVDRip XviD-EXViD [SUMOTorrent]","uid":8328914,"size":746897440,"categoryP":"video","categoryS":"movies","magnet":"?xt=urn:btih:0fc450c10210ea13af879aa303f9000d10cbfd0d&amp;dn=Punch+Drunk+Love+2002+WS+DVDRip+XviD-EXViD+%5BSUMOTorrent%5D&amp;tr=udp%3A%2F%2Ftracker.openbittorrent.com%3A80&amp;tr=udp%3A%2F%2Fopen.demonii.com%3A1337&amp;tr=udp%3A%2F%2Ftracker.coppersurfer.tk%3A6969&amp;tr=udp%3A%2F%2Fexodus.desync.com%3A6969","seeders":2,"leechers":0,"uploader":"J.R.Dobbs","files":-1,"time":1364843335,"description":"Punch Drunk Love 2002 WS DVDRip XviD-EXViD [SUMOTorrent]\n &lt;a href=&quot;\nhttp://www.imdb.com/title/tt0272338/&quot; rel=&quot;nofollow&quot; target=&quot;_NEW&quot;&gt;\nhttp://www.imdb.com/title/tt0272338/&lt;/a&gt;\nSubtitles: EN, FR\nDate: 2012.10\n\nDirector: Paul Thomas Anderson\n\nGenre: Comedy | Drama | Romance\n\nPlot:\nA psychologically troubled novelty supplier is nudged into\na romance with an English woman, all the while being extorted\nby a phone-sex line run by a crooked mattress salesman and\npurchasing stunning amounts of pudding.\n\nCast:\nAdam Sandler ... Barry Egan\nJason Andrews ... Operator Carter (voice)\nDon McManus ... Plastic (voice)\nEmily Watson ... Lena Leonard\nLuis GuzmÂ·n ... Lance\nDavid Schrempf ... Customer #1\nSeann Conway ... Customer #2\nRico Bueno ... Rico\nHazel Mailloux ... Rhonda\nKaren Kilgariff ... Anna (voice)\nJulie Hermelin ... Kathleen\nSalvador Curiel ... Sal\nJorge Barahona ... Jorge\nErnesto Quintero ... Ernesto\nJulius Steuer ... Mechanic\n\nStats:\nFormat : AVI\nFormat/Info : Audio Video Interleave\nFile size : 701 MiB\nDuration : 1h 35mn\nOverall bit rate : 1 029 Kbps\nWriting application : Nandub v1.0rc2\nWriting library : Nandub build 1852/release\n\nVideo\nID : 0\nFormat : MPEG-4 Visual\nFormat profile : Advanced Simple@L5\nFormat settings, BVOP : 2\nFormat settings, QPel : No\nFormat settings, GMC : No warppoints\nFormat settings, Matrix : Default (H.263)\nCodec ID : XVID\nCodec ID/Hint : XviD\nDuration : 1h 35mn\nBit rate : 897 Kbps\nWidth : 640 pixels\nHeight : 272 pixels\nDisplay aspect ratio : 2.35:1\nFrame rate : 23.976 fps\nColor space : YUV\nChroma subsampling : 4:2:0\nBit depth : 8 bits\nScan type : Progressive\nCompression mode : Lossy\nBits/(Pixel*Frame) : 0.215\nStream size : 611 MiB (87%)\nWriting library : XviD 64\n\nAudio\nID : 1\nFormat : MPEG Audio\nFormat version : Version 1\nFormat profile : Layer 3\nMode : Joint stereo\nMode extension : MS Stereo\nCodec ID : 55\nCodec ID/Hint : MP3\nDuration : 1h 35mn\nBit rate mode : Variable\nBit rate : 119 Kbps\nNominal bit rate : 128 Kbps\nChannel(s) : 2 channels\nSampling rate : 48.0 KHz\nCompression mode : Lossy\nStream size : 81.3 MiB (12%)\nAlignment : Aligned on interleaves\nInterleave, duration : 24 ms (0.58 video frame)\nInterleave, preload duration : 342 ms\nWriting library : LAME3.98r\nEncoding settings : -m j -V 4 -q 3 -lowpass 17 --abr 128\n\nRelease notes:\nDMT rip was 1.80:1. Ours is 2.35:1.\n\nenjoy!\n\nGreets: CRBS EPiSODE FiCO FLS iLS KLASSiGER LiPSYNC MADE NODLABS RUNNER SPRiNTER\n\n------\n &lt;a href=&quot;\nhttp://www.SUMOTorrent.com&quot; rel=&quot;nofollow&quot; target=&quot;_NEW&quot;&gt;\nhttp://www.SUMOTorrent.com&lt;/a&gt;","torrent":{"xt":"urn:btih:0fc450c10210ea13af879aa303f9000d10cbfd0d","amp;dn":"Punch+Drunk+Love+2002+WS+DVDRip+XviD-EXViD+%5BSUMOTorrent%5D","amp;tr":["udp%3A%2F%2Ftracker.openbittorrent.com%3A80","udp%3A%2F%2Fopen.demonii.com%3A1337","udp%3A%2F%2Ftracker.coppersurfer.tk%3A6969","udp%3A%2F%2Fexodus.desync.com%3A6969"],"infoHash":"0fc450c10210ea13af879aa303f9000d10cbfd0d","infoHashBuffer":{"type":"Buffer","data":[15,196,80,193,2,16,234,19,175,135,154,163,3,249,0,13,16,203,253,13]},"announce":[],"urlList":[]}}